<svg xmlns="http://www.w3.org/2000/svg" width="50" height="52.907" viewBox="0 0 50 52.907"><path d="M46.837,18.093l-1.8,33.6a2.35,2.35,0,0,1-2.326,2.209H13.291A2.35,2.35,0,0,1,10.965,51.7l-1.8-33.6a2.328,2.328,0,1,1,4.651-.233l1.686,31.4H40.558l1.686-31.4a2.3,2.3,0,1,1,4.593.233ZM53,10.3a2.332,2.332,0,0,1-2.326,2.326H5.326a2.326,2.326,0,1,1,0-4.651H18.116V2.744A1.681,1.681,0,0,1,19.977,1H36.023a1.681,1.681,0,0,1,1.86,1.744V7.977H50.674A2.332,2.332,0,0,1,53,10.3ZM22.186,7.977H33.814V5.07H22.186Zm.988,37.791h0a2.176,2.176,0,0,0,2.035-2.209l-.581-25.116a2.073,2.073,0,0,0-2.093-2.035A1.989,1.989,0,0,0,20.558,18.5l.581,25.174A2.111,2.111,0,0,0,23.174,45.767Zm9.593,0A2.06,2.06,0,0,0,34.8,43.733l.581-25.116a2.036,2.036,0,0,0-4.07-.116l-.581,25.116a2.05,2.05,0,0,0,2.035,2.151Z" transform="translate(-3 -1)" fill="#ef8216"/></svg>